<svg width="1000" height="1000" viewBox="0 0 1000 1000" fill="none" xmlns="http://www.w3.org/2000/svg">
<rect width="1000" height="1000" rx="180" fill="black"/>
<mask id="mask0_367_201" style="mask-type:luminance" maskUnits="userSpaceOnUse" x="397" y="175" width="391" height="481">
<path d="M711.973 226.243C756.559 237.75 787.512 276.249 787.512 320.197V606.439C787.512 638.717 755.266 662.172 722.52 653.709L657.562 636.945L473.213 589.383C428.623 577.877 397.666 539.378 397.666 495.426V272.405C397.666 208.268 461.726 161.658 526.794 178.451L711.973 226.243Z" fill="white"/>
</mask>
<g mask="url(#mask0_367_201)">
<path d="M787.512 320.216H736.346V606.458H787.512H838.679V320.216H787.512ZM722.52 653.728L735.936 606.757L670.961 589.987L657.563 636.965L644.167 683.942L709.125 700.706L722.52 653.728ZM657.563 636.965L670.961 589.987L486.607 542.425L473.214 589.403L459.82 636.38L644.167 683.942L657.563 636.965ZM397.667 495.445H448.833V272.424H397.667H346.5V495.445H397.667ZM526.794 178.47L513.397 225.447L698.578 273.239L711.973 226.262L725.372 179.286L540.19 131.493L526.794 178.47ZM473.214 589.403L486.607 542.425C464.312 536.671 448.833 517.422 448.833 495.445H397.667H346.5C346.5 561.372 392.935 619.124 459.82 636.38L473.214 589.403ZM787.512 606.458H736.346C736.346 606.621 736.329 606.669 736.335 606.643C736.339 606.621 736.352 606.591 736.363 606.569C736.38 606.536 736.349 606.608 736.219 606.702C736.086 606.799 736.008 606.809 736.045 606.802C736.073 606.796 736.103 606.793 736.127 606.793C736.158 606.796 736.1 606.799 735.936 606.757L722.52 653.728L709.125 700.706C774.407 717.577 838.679 670.81 838.679 606.458H787.512ZM397.667 272.424H448.833C448.833 240.356 480.863 217.05 513.397 225.447L526.794 178.47L540.19 131.493C442.59 106.304 346.5 176.22 346.5 272.424H397.667ZM787.512 320.216H838.679C838.679 254.294 792.25 196.546 725.372 179.286L711.973 226.262L698.578 273.239C720.869 278.993 736.346 298.242 736.346 320.216H787.512Z" fill="#D2D2D2"/>
</g>
<mask id="mask1_367_201" style="mask-type:luminance" maskUnits="userSpaceOnUse" x="295" y="242" width="391" height="481">
<path d="M609.641 293.71C654.227 305.217 685.18 343.716 685.18 387.664V673.906C685.18 706.184 652.934 729.639 620.188 721.176L555.23 704.412L370.881 656.85C326.291 645.343 295.334 606.844 295.334 562.894V339.872C295.334 275.735 359.394 229.125 424.462 245.918L609.641 293.71Z" fill="white"/>
</mask>
<g mask="url(#mask1_367_201)">
<path d="M685.18 387.683H634.014V673.925H685.18H736.347V387.683H685.18ZM620.188 721.195L633.604 674.224L568.629 657.453L555.231 704.431L541.835 751.409L606.793 768.173L620.188 721.195ZM555.231 704.431L568.629 657.453L384.275 609.891L370.882 656.869L357.488 703.847L541.835 751.409L555.231 704.431ZM295.335 562.914H346.501V339.891H295.335H244.168V562.914H295.335ZM424.462 245.937L411.065 292.914L596.246 340.706L609.641 293.729L623.04 246.752L437.859 198.96L424.462 245.937ZM370.882 656.869L384.275 609.891C361.98 604.138 346.501 584.889 346.501 562.914H295.335H244.168C244.168 628.839 290.603 686.59 357.488 703.847L370.882 656.869ZM685.18 673.925H634.014C634.014 674.087 633.997 674.136 634.003 674.11C634.007 674.087 634.02 674.058 634.031 674.035C634.048 674.003 634.017 674.074 633.887 674.168C633.754 674.266 633.676 674.275 633.713 674.269C633.741 674.262 633.771 674.259 633.795 674.259C633.826 674.262 633.768 674.266 633.604 674.224L620.188 721.195L606.793 768.173C672.075 785.044 736.347 738.277 736.347 673.925H685.18ZM295.335 339.891H346.501C346.501 307.822 378.531 284.517 411.065 292.914L424.462 245.937L437.859 198.96C340.258 173.77 244.168 243.686 244.168 339.891H295.335ZM685.18 387.683H736.347C736.347 321.761 689.918 264.013 623.04 246.752L609.641 293.729L596.246 340.706C618.537 346.46 634.014 365.709 634.014 387.683H685.18Z" fill="#D2D2D2"/>
</g>
<mask id="mask2_367_201" style="mask-type:luminance" maskUnits="userSpaceOnUse" x="193" y="339" width="390" height="482">
<path d="M507.307 391.068C551.893 402.575 582.846 441.073 582.846 485.022V771.262C582.846 803.54 550.6 826.995 517.855 818.535L452.897 801.771L268.547 754.206C223.957 742.703 193 704.201 193 660.25V437.229C193 373.093 257.06 326.483 322.128 343.276L507.307 391.068Z" fill="white"/>
</mask>
<g mask="url(#mask2_367_201)">
<path d="M582.846 485.041H531.68V771.281H582.846H634.013V485.041H582.846ZM517.856 818.554L531.269 771.58L466.294 754.813L452.898 801.791L439.501 848.765L504.459 865.529L517.856 818.554ZM452.898 801.791L466.294 754.813L281.941 707.247L268.548 754.225L255.154 801.203L439.501 848.765L452.898 801.791ZM193.001 660.27H244.167V437.249H193.001H141.834V660.27H193.001ZM322.128 343.295L308.731 390.272L493.91 438.064L507.308 391.087L520.705 344.11L335.525 296.318L322.128 343.295ZM268.548 754.225L281.941 707.247C259.646 701.494 244.167 682.245 244.167 660.27H193.001H141.834C141.834 726.195 188.269 783.946 255.154 801.203L268.548 754.225ZM582.846 771.281H531.68C531.68 771.443 531.662 771.495 531.669 771.469C531.674 771.447 531.685 771.417 531.698 771.395C531.715 771.362 531.683 771.434 531.552 771.528C531.421 771.622 531.342 771.635 531.379 771.625C531.405 771.622 531.438 771.619 531.462 771.619C531.491 771.619 531.435 771.622 531.269 771.58L517.856 818.554L504.459 865.529C569.741 882.4 634.013 835.636 634.013 771.281H582.846ZM193.001 437.249H244.167C244.167 405.18 276.197 381.875 308.731 390.272L322.128 343.295L335.525 296.318C237.924 271.129 141.834 341.044 141.834 437.249H193.001ZM582.846 485.041H634.013C634.013 419.118 587.584 361.371 520.705 344.11L507.308 391.087L493.91 438.064C516.203 443.817 531.68 463.067 531.68 485.041H582.846Z" fill="#D2D2D2"/>
</g>
</svg>
